<?xml version="1.0" encoding="utf-8"?>
<!-- Generator: Adobe Illustrator 16.0.0, SVG Export Plug-In . SVG Version: 6.00 Build 0)  -->
<!DOCTYPE svg PUBLIC "-//W3C//DTD SVG 1.1//EN" "http://www.w3.org/Graphics/SVG/1.1/DTD/svg11.dtd">
<svg version="1.1" id="Layer_1" xmlns="http://www.w3.org/2000/svg" xmlns:xlink="http://www.w3.org/1999/xlink" x="0px" y="0px"
	 width="467.826px" height="134.783px" viewBox="0 0 467.826 134.783" enable-background="new 0 0 467.826 134.783"
	 xml:space="preserve">
<g>
	<g>
		<path fill="#FFFFFF" d="M225.418,78.186l-5.177,19.402h-11.248L224.5,38.935h29.946c12.816,0.31,16.674,4.295,13.161,17.592
			c-2.336,8.675-4.465,15.014-14.782,16.5l-0.094,0.309c7.777,0.704,8.571,5.005,6.415,13.295l-2.918,10.958h-11.266l2.927-10.958
			c1.271-4.916,0.195-8.359-5.193-8.445H225.418z M242.808,68.564c8.284,0,10.724-1.635,13.052-10.244
			c2.149-8.287,1.06-9.769-6.996-9.769h-15.643l-5.262,20.013H242.808z"/>
		<path fill="#FFFFFF" d="M305.467,84.526c-3.418,12.9-10.954,13.523-22.684,13.523c-15.726,0-17.645-5.002-13.448-20.875
			c3.897-14.696,7.991-21.125,24.562-21.125c16.902,0,17.807,4.936,13.124,22.844h-28.236c-2.339,8.836-2.886,11.654,5.956,11.654
			c5.472,0,9.3,0.07,10.862-6.023H305.467z M298.811,72.632c2.243-8.443,1.108-9.064-6.951-9.064c-8.524,0-9.478,1.797-11.423,9.064
			H298.811z"/>
		<path fill="#FFFFFF" d="M332.535,99.223c-4.795,9.306-8.616,16.577-20.113,16.577c-1.403,0-2.724-0.237-4.129-0.31l2.04-7.428
			c0.626,0.077,1.313,0.238,2.014,0.238c6.186,0,8.683-5.951,10.803-10.711h-4.77l-2.611-41.061h10.162l1.139,34.948h0.159
			l17.248-34.948h9.997L332.535,99.223z"/>
		<path fill="#FFFFFF" d="M362.135,87.968h27.364l-2.538,9.62h-38.64l15.518-58.653h11.258L362.135,87.968z"/>
		<path fill="#FFFFFF" d="M401.502,97.588h-9.856l10.918-41.061h9.856L401.502,97.588z M414.847,47.304h-9.845l2.157-8.369h9.849
			L414.847,47.304z"/>
		<path fill="#FFFFFF" d="M420.981,90.068h22.131l-1.962,7.521h-33.548l2.244-8.457l28.523-25.098h-20.172l2.032-7.506h31.838
			l-2.236,8.212L420.981,90.068z"/>
	</g>
	<g>
		<polygon fill="#FF5000" points="39.848,93.073 50.923,93.073 44.801,110.109 33.159,110.109 		"/>
		<g>
			<path fill="#FF5000" d="M45.379,76.801l5.544-20.683h-0.002H27.598c-5.352,20.309-11.44,43.425-12.161,46.204
				c-1.303,5.064,0.205,7.787,3.974,7.787s17.213,0,17.213,0l8.701-33.308H45.379z"/>
			<path fill="#F7323F" d="M79.626,73.681c6.161-2.089,10.641-4.792,14.547-8.708c5.117-5.109,7.93-12.359,7.93-20.418
				c0-7.081-2.356-13.182-6.817-17.641c-5.781-5.788-14.502-8.596-26.648-8.596H47.516h-0.789c-3.779,0-9.483,0-10.823,6.285
				c0,0-1.592,6.027-3.884,14.729h23.409h5.426h6.785c5.756,0,8.272,1.31,9.375,2.409c1.171,1.174,1.627,2.371,1.627,4.261
				c0,2.331-0.808,4.327-2.406,5.93c-2.701,2.7-7.57,4.187-13.713,4.187h-3.061L54.607,77.09l20.705,33.019h29.205L79.626,73.681z"
				/>
		</g>
	</g>
</g>
<g>
</g>
<g>
</g>
<g>
</g>
<g>
</g>
<g>
</g>
<g>
</g>
<g>
</g>
<g>
</g>
<g>
</g>
<g>
</g>
<g>
</g>
<g>
</g>
<g>
</g>
<g>
</g>
<g>
</g>
</svg>
